<?xml version="1.0" encoding="UTF-8"?> <svg xmlns="http://www.w3.org/2000/svg" xmlns:xlink="http://www.w3.org/1999/xlink" viewBox="0 0 1063 517"><defs><style>.cls-1,.cls-8{fill:#fff;}.cls-1,.cls-12,.cls-13,.cls-14,.cls-15,.cls-16,.cls-17{fill-rule:evenodd;}.cls-18,.cls-2,.cls-21,.cls-23,.cls-3{fill:none;}.cls-2{clip-rule:evenodd;}.cls-4,.cls-7{fill:#02024e;}.cls-16,.cls-5{fill:#1ab8e8;}.cls-6{fill:url(#linear-gradient);}.cls-24,.cls-7{opacity:0.5;}.cls-9{clip-path:url(#clip-path);}.cls-10{mask:url(#mask);}.cls-11{mask:url(#mask-2);}.cls-12{fill:#75d5f1;}.cls-13{fill:#d9f7ff;}.cls-14{fill:#b8e9f8;}.cls-15{fill:#f9f9f9;isolation:isolate;opacity:0.51;}.cls-17{fill:url(#linear-gradient-2);}.cls-18,.cls-23{stroke:#02024e;}.cls-18{stroke-linecap:square;stroke-width:2px;}.cls-18,.cls-21,.cls-23{stroke-linejoin:round;}.cls-19{fill:#b45ef9;}.cls-20{clip-path:url(#clip-path-2);}.cls-21{stroke:#b45ef9;}.cls-21,.cls-23{stroke-linecap:round;stroke-width:2.29px;}.cls-22{fill:#d19efa;}.cls-24{fill:url(#linear-gradient-3);}</style><linearGradient id="linear-gradient" x1="825.7" y1="104.05" x2="898.42" y2="31.33" gradientTransform="matrix(-1, 0, 0, 1, 1081.29, 0)" gradientUnits="userSpaceOnUse"><stop offset="0" stop-color="#21e6ae"></stop><stop offset="0.5" stop-color="#1bb9e8"></stop><stop offset="1" stop-color="#b45ff9"></stop></linearGradient><clipPath id="clip-path"><path id="masterherocharacter-male-office-and-1-idea-path-1" class="cls-2" d="M225.92,506.07H869.24q172.54-3.4,172.54-96.6c0-93.21-50.59-360.41-453-360.41-421.3,0-584.91,152.46-566.17,205.53S175.07,295.07,124.85,358,82.86,506.07,225.92,506.07Z"></path></clipPath><mask id="mask" x="179.87" y="244.91" width="676.46" height="298.25" maskUnits="userSpaceOnUse"><g id="masterherocharacter-male-office-and-1-idea-mask-2"><path id="masterherocharacter-male-office-and-1-idea-path-1-2" data-name="masterherocharacter-male-office-and-1-idea-path-1" class="cls-1" d="M315.85,543.16H742q114.32-2.25,114.31-64c0-61.74-82.32-234.25-348.87-234.25s-338.68,96.5-326.27,131.65,101,26.82,67.7,68.53S221.08,543.16,315.85,543.16Z"></path></g></mask><mask id="mask-2" x="260.57" y="311.77" width="291.77" height="172.93" maskUnits="userSpaceOnUse"><g id="masterherocharacter-male-office-and-1-idea-mask-4"><path id="masterherocharacter-male-office-and-1-idea-path-3" class="cls-1" d="M535.6,484.7A15.74,15.74,0,0,0,551.33,469c0-.41,0-.82-.05-1.23l-11-141.46a15.73,15.73,0,0,0-15.68-14.51H263.72a3.15,3.15,0,0,0-3.15,3.15c0,.08,0,.16,0,.24l13,166.64a3.16,3.16,0,0,0,3.14,2.9Z"></path></g></mask><linearGradient id="linear-gradient-2" x1="341.01" y1="408.72" x2="468.42" y2="352.61" gradientUnits="userSpaceOnUse"><stop offset="0" stop-color="#b45ff9"></stop><stop offset="0.51" stop-color="#1bb9e8"></stop><stop offset="1" stop-color="#21e6ae"></stop></linearGradient><clipPath id="clip-path-2"><path class="cls-3" d="M890.46,237.64H571.35V475.79h33.71c71.65,89.94,178.34,74.77,225,27.29a126,126,0,0,0,20.56-27.29h39.89Z"></path></clipPath><linearGradient id="linear-gradient-3" x1="759.39" y1="487.58" x2="759.39" y2="104.62" gradientUnits="userSpaceOnUse"><stop offset="0" stop-color="#b45ff9"></stop><stop offset="0.5" stop-color="#1bb9e8"></stop><stop offset="1" stop-color="#21e6ae"></stop></linearGradient></defs><g id="Layer_4" data-name="Layer 4"><path id="masterherocharacter-male-office-and-1-idea-path-1-3" data-name="masterherocharacter-male-office-and-1-idea-path-1" class="cls-1" d="M225.92,506.07H869.24q172.54-3.4,172.54-96.6c0-93.21-50.59-360.41-453-360.41-421.3,0-584.91,152.46-566.17,205.53S175.07,295.07,124.85,358,82.86,506.07,225.92,506.07Z"></path><path class="cls-4" d="M336.92,117.9l10.79,10.82a6.93,6.93,0,0,1,2,4.9V154a3,3,0,0,1-4,2.8c-4.21-1.49-10.25-6.44-10.12-22.49l-17.17-12.38Z"></path><path class="cls-4" d="M331.93,131.63l-4.5,21.94a3,3,0,0,1-5.14,1.37,15.42,15.42,0,0,1-3.8-13.89l3.1-12.61-5.73-5.92,2.63-.58,18.43-4Z"></path><path class="cls-5" d="M287.85,82.36l33.63,22.08h32.39a4.49,4.49,0,0,1,4.2,2.91l8.79,23.45a2.86,2.86,0,0,1-2.15,3.83c-4.6.8-13.2-.54-19-18.66l-40.49,8.87a4.3,4.3,0,0,0-3.36,4.63c.74,7.44,1.76,24-2.65,33.12a4.21,4.21,0,0,1-4.62,2.25h0a4.24,4.24,0,0,1-3.4-3.88l-1.91-28.76s-7.79-4.89-5.46-22.43l-19.11-12Z"></path><ellipse class="cls-4" cx="199.1" cy="59.05" rx="63.42" ry="27.33" transform="translate(48.41 201.96) rotate(-60)"></ellipse><path class="cls-6" d="M278.58,68.91l-28.19,40.34L164,70.6a135.84,135.84,0,0,1,11.43-25.21,131.18,131.18,0,0,1,20.24-26.87Z"></path><path class="cls-7" d="M195.51,18.7l.17-.18,11,6.68a127.63,127.63,0,0,0-22.43,29,139.81,139.81,0,0,0-10,21L164,70.6a135.84,135.84,0,0,1,11.43-25.21A131.07,131.07,0,0,1,195.51,18.7Z"></path><path class="cls-8" d="M278.58,68.91l13.57,8.25a3.52,3.52,0,0,1,1.06,5L270.27,115a3.54,3.54,0,0,1-4.33,1.2l-15.55-7Z"></path><g class="cls-9"><g class="cls-10"><g id="Group-33-Copy"><g id="Group-29"><g id="Group-15"><g class="cls-11"><path id="Combined-Shape" class="cls-12" d="M273.92,311.77a12.58,12.58,0,0,0-12.58,12.58c0,.33,0,.66,0,1L272.9,473.09a12.59,12.59,0,0,0,12.55,11.61h13.49a12.59,12.59,0,0,1-12.55-11.61h0L274.87,325.33c0-.32,0-.65,0-1a12.58,12.58,0,0,1,12.58-12.58H273.92Z"></path><path id="Rectangle" class="cls-13" d="M536.2,311.77h-259a3.15,3.15,0,0,0-3.15,3.15c0,.08,0,.16,0,.24l13,166.64a3.16,3.16,0,0,0,3.14,2.9h259a3.15,3.15,0,0,0,3.15-3.15,1.93,1.93,0,0,0,0-.24l-13-166.64A3.14,3.14,0,0,0,536.2,311.77Z"></path><g id="Group-31"><g id="Mask-3" data-name="Mask"><path id="masterherocharacter-male-office-and-1-idea-path-5" class="cls-14" d="M277.21,311.77a3.15,3.15,0,0,0-3.14,3.15,1.93,1.93,0,0,0,0,.24L285.17,455.5h265.3L539.34,314.67a3.14,3.14,0,0,0-3.13-2.9Z"></path></g></g></g></g><path id="Combined-Shape-2" data-name="Combined-Shape" class="cls-13" d="M350.25,484.7,334.46,536a5.5,5.5,0,0,0,5.26,7.13h60l18-58.39H397.52l-11.89,36.55a2.35,2.35,0,0,1-2.11,1.62h-21a2.37,2.37,0,0,1-2.25-3.09h0l11.42-35.09Z"></path><path id="Combined-Shape-3" data-name="Combined-Shape" class="cls-12" d="M341.55,484.7,325.76,536a5.5,5.5,0,0,0,5.26,7.13h9a5.5,5.5,0,0,1-5.26-7.13h0l15.79-51.26Zm47.27,0-11.89,36.55a2.36,2.36,0,0,1-2.12,1.62h9a2.35,2.35,0,0,0,2.12-1.62h0l11.89-36.55Z"></path><path id="Combined-Shape-4" data-name="Combined-Shape" class="cls-15" d="M388.82,484.7l-5.11,15.72h29.15l4.84-15.72Zm-47.27,0-4.84,15.72h29.84l5.12-15.72Z"></path></g></g></g><g id="Group-2"><g id="Graphics"><g id="Graphics_Documents_3" data-name="Graphics/Documents 3"><g id="Group-9"><path id="Rectangle-Copy-4" class="cls-16" d="M457.72,302H353.39l7.33,84.7c.28,3.25,3.89,5.87,8.07,5.87H458c4.17,0,7.33-2.62,7.05-5.87Z"></path><path id="Combined-Shape-Copy-3" class="cls-17" d="M419.56,331.33c-3.34,0-5.86,2.11-5.64,4.7l.3,3.53c.29,3.24-2.87,5.87-7.05,5.87h-59c-3.34,0-5.86,2.1-5.64,4.7l4.16,54.72c.22,2.59,3.11,4.7,6.45,4.7H475.65c3.34,0,5.86-2.11,5.64-4.7L475.91,336c-.22-2.59-3.11-4.7-6.45-4.7Z"></path><line id="Path-20-Copy" class="cls-18" x1="445.25" y1="315.13" x2="369.8" y2="315.13"></line><line id="Path-20-Copy-2" class="cls-18" x1="446.27" y1="326.88" x2="370.81" y2="326.88"></line><line id="Path-20-Copy-3" class="cls-18" x1="400.41" y1="338.62" x2="371.83" y2="338.62"></line></g></g></g></g><g id="Artwork_697" data-name="Artwork 697"><polygon class="cls-5" points="432.24 270.55 334.41 270.55 324.78 166.19 422.61 166.19 432.24 270.55"></polygon><polygon class="cls-4" points="441.2 277.16 343.38 277.16 333.75 172.81 431.57 172.81 441.2 277.16"></polygon><polygon class="cls-5" points="451.18 284.64 353.35 284.64 343.72 180.3 441.55 180.3 451.18 284.64"></polygon><polygon class="cls-4" points="393.48 178.2 352.38 178.2 352.25 176.6 393.35 176.6 393.48 178.2"></polygon><polygon class="cls-4" points="394.44 189.82 353.34 189.82 353.21 188.22 394.3 188.22 394.44 189.82"></polygon><polygon class="cls-4" points="438.2 209.27 354.95 209.27 354.81 207.67 438.07 207.67 438.2 209.27"></polygon><polygon class="cls-4" points="438.67 214.88 355.41 214.88 355.28 213.28 438.54 213.28 438.67 214.88"></polygon><polygon class="cls-4" points="439.13 220.5 355.87 220.5 355.74 218.89 439 218.89 439.13 220.5"></polygon><polygon class="cls-4" points="439.59 226.11 356.33 226.11 356.2 224.5 439.46 224.5 439.59 226.11"></polygon><polygon class="cls-4" points="440.06 231.72 356.8 231.72 356.67 230.12 439.92 230.12 440.06 231.72"></polygon><polygon class="cls-4" points="440.52 237.34 357.26 237.34 357.13 235.73 440.39 235.73 440.52 237.34"></polygon><polygon class="cls-4" points="440.98 242.95 357.73 242.95 357.59 241.35 440.85 241.35 440.98 242.95"></polygon><polygon class="cls-4" points="441.45 248.56 358.19 248.56 358.06 246.96 441.31 246.96 441.45 248.56"></polygon></g><g id="Artwork_824" data-name="Artwork 824"><path class="cls-4" d="M661.58,205.42a33.79,33.79,0,0,0,15.34-21.24l12.79-5,25.91,20.54c-1.54-5.34,0-10.93,3.55-13.79,4.44-3.55,10.13-1.35,13,1,6.16,5,6.77,16.19,3,23.65a18.06,18.06,0,0,1-2.61,3.84l18.48-2L768.15,264l-50.88,16.84v-9.57L701.72,279a25.79,25.79,0,0,1-34.87-12.31l-26-56.49c1,.1,2.11.15,3.18.15A33.64,33.64,0,0,0,661.58,205.42Z"></path><path class="cls-19" d="M609.73,132.85a28.54,28.54,0,0,0,1.79,34.43,33.78,33.78,0,1,0,65.4,16.9l67.6-26.36c-.47-10.28-.83-18.48-.83-18.48a25.2,25.2,0,0,0-26.92-24l-32.61,2.25a26.09,26.09,0,0,0-46.6,3.08,29.18,29.18,0,0,0-4.21-.3A28.51,28.51,0,0,0,609.73,132.85Z"></path><circle class="cls-19" cx="649.31" cy="184.15" r="40.76"></circle><g class="cls-20"><path class="cls-19" d="M834.55,594.63l-24.61-84a42.7,42.7,0,0,0,14.77-18.45l53.42-128a39.93,39.93,0,0,0-26-53.8l-75.75-21.46L768.15,264l-50.88,16.84v8.06L635.13,313V444.21l28.66,3.33v40L644.27,594.63Z"></path></g><path class="cls-4" d="M663.79,459.55v28L630.44,472c.86-5.11,2.71-16.06,4.69-27.79l28.66,3.33Z"></path><path class="cls-21" d="M669,226.51l3.46,17.43a6.61,6.61,0,0,0,6,5.31h0a6.63,6.63,0,0,0,5.72-2.59l3.66-4.8-3.66-1.67"></path><circle class="cls-21" cx="691.25" cy="259.61" r="5.09"></circle><path class="cls-19" d="M628.11,320l60,30.25L652.5,400.18l-12.26,72.55a33.33,33.33,0,0,1-37.94,27.4h0a33.34,33.34,0,0,1-26.06-44.89Z"></path><path class="cls-4" d="M664.7,338.44c1.06-2.6,8.06-61.84,8.06-61.84h0a30.19,30.19,0,0,0,2.11-34l-.94-1.59s22.37-27.57,18.53-31.51a5.09,5.09,0,0,0-6.94-.48s4.43-7.15,3.56-11.37c-.42-2.09-2.8-2-4.13-1.57a19.22,19.22,0,0,0-5,2.67,35,35,0,0,1-6.12,3.17s2.45-2.86,3.17-4c1.88-2.86,5.08-5.11,4.63-8-.32-2.08-3.47-4.22-5.5-3.35s-6.66,5.61-9.31,7.63c-8.11,6.19-17.18,14.33-17.18,14.33s3.29-8.7,6.63-15.22c1.18-2.32,2.91-4.72,3-6.72a3.65,3.65,0,0,0-3.83-4c-1.62,0-4,2-6.86,5.87-6,8.14-13.49,22.76-17.49,31.37a17,17,0,0,0-.33,13.53l15.68,38.64L628.11,320Z"></path><path class="cls-21" d="M672.76,276.6a30.19,30.19,0,0,0,2.11-34l-.94-1.59s22.37-27.57,18.53-31.51"></path><path class="cls-22" d="M744.62,157.78c.51,15.08,1.17,34.63,1.33,39.34,1.31,3.94,3.35,10.1,5.07,15.26l-18.48,2a18.06,18.06,0,0,0,2.61-3.84c3.81-7.46,3.2-18.69-3-23.65-2.89-2.33-8.58-4.53-13-1-3.57,2.86-5.09,8.45-3.55,13.79l-25.91-20.54Z"></path><polyline class="cls-23" points="667.53 447.97 768.39 459.68 790.71 395.05"></polyline><path class="cls-23" d="M805.92,513.14a42.83,42.83,0,0,1-25.31,5.11L663.79,505.71"></path><polyline class="cls-23" points="667.23 339.72 688.11 350.25 652.5 400.18 646.47 435.88"></polyline><line class="cls-23" x1="741.42" y1="170.5" x2="696.99" y2="187.82"></line><path class="cls-23" d="M715.62,199.73c-1.54-5.34,0-10.93,3.55-13.79,4.44-3.55,10.13-1.35,13,1,6.16,5,6.77,16.19,3,23.65a19.08,19.08,0,0,1-10.65,9.2"></path><path class="cls-24" d="M826.62,487.58Zm25.54-177.21-75.75-21.46L768.15,264h0L751,212.38l10.49,79a25.81,25.81,0,0,0,26.86,22.34c19.45-.92,46.6,2.41,63.74,24,18.55,23.37,4.81,72.25-7.65,107.12l33.67-80.67A39.93,39.93,0,0,0,852.16,310.37ZM662.72,115.58c11.94,5.49,11.94,14.76,11.94,14.76s57.57-25.93,69.83,26.89c-.45-10-.8-17.89-.8-17.89a25.2,25.2,0,0,0-26.92-24l-32.61,2.25a26.09,26.09,0,0,0-46.6,3.08S650.79,110.1,662.72,115.58Z"></path><polyline class="cls-23" points="702.44 298.78 720.36 358.26 783.43 299.96"></polyline><circle class="cls-8" cx="720.36" cy="366.16" r="7.89"></circle></g></g><path class="cls-5" d="M753,107.23a3.51,3.51,0,0,1-3.51,3.51c-1.94,0-2.2-1.18-7,0-2.93.72,4-7,7-7A3.51,3.51,0,0,1,753,107.23Z"></path><path class="cls-5" d="M579.19,115.3a3.51,3.51,0,0,0,4.4,2.3c1.86-.58,1.75-1.79,6.71-2.1,3-.2-5.87-5.52-8.81-4.6A3.51,3.51,0,0,0,579.19,115.3Z"></path><path class="cls-5" d="M703.31,69a3.52,3.52,0,0,1-.48,5c-1.5,1.23-2.45.48-5.43,4.46-1.8,2.41-1.41-7.93,1-9.89A3.52,3.52,0,0,1,703.31,69Z"></path></g></svg> 