<?xml version="1.0" encoding="UTF-8"?> <svg xmlns="http://www.w3.org/2000/svg" xmlns:xlink="http://www.w3.org/1999/xlink" id="Layer_1" viewBox="0 0 400 362.05"><defs><style>.cls-1{fill:none;}.cls-2{fill:url(#linear-gradient-2);}.cls-2,.cls-3,.cls-4,.cls-5{isolation:isolate;opacity:.5;}.cls-3{fill:url(#linear-gradient-3);}.cls-4{fill:url(#linear-gradient-4);}.cls-5{fill:url(#linear-gradient-8);}.cls-6{fill:url(#linear-gradient);}.cls-7{clip-path:url(#clippath);}.cls-8{fill:#02024e;}.cls-9{fill:#fff;}.cls-10{fill:#1ab8e8;}.cls-11{fill:url(#linear-gradient-6);}.cls-12{fill:url(#linear-gradient-7);}.cls-13{fill:url(#linear-gradient-5);}</style><clipPath id="clippath"><rect class="cls-1" x="10.87" y="9.48" width="378.26" height="343.09"></rect></clipPath><linearGradient id="linear-gradient" x1="125.52" y1="-1125.25" x2="124.7" y2="-1126.64" gradientTransform="translate(0 -910.22) scale(1 -1)" gradientUnits="userSpaceOnUse"><stop offset="0" stop-color="#f2e3fd"></stop><stop offset="1" stop-color="#b9eaf8"></stop></linearGradient><linearGradient id="linear-gradient-2" x1="51.63" y1="-1058.31" x2="300.18" y2="-1281.8" gradientTransform="translate(0 -910.22) scale(1 -1)" gradientUnits="userSpaceOnUse"><stop offset="0" stop-color="#b45ff9" stop-opacity=".5"></stop><stop offset=".48" stop-color="#1bb9e8"></stop><stop offset=".77" stop-color="#21e6ae"></stop></linearGradient><linearGradient id="linear-gradient-3" x1="54.09" y1="-1054.98" x2="303.01" y2="-1278.8" gradientTransform="translate(0 -910.22) scale(1 -1)" gradientUnits="userSpaceOnUse"><stop offset="0" stop-color="#b45ff9"></stop><stop offset=".48" stop-color="#1bb9e8"></stop><stop offset=".77" stop-color="#21e6ae"></stop></linearGradient><linearGradient id="linear-gradient-4" x1="91.58" y1="-1006.23" x2="340.5" y2="-1230.05" gradientTransform="translate(0 -910.22) scale(1 -1)" gradientUnits="userSpaceOnUse"><stop offset="0" stop-color="#b45ff9"></stop><stop offset=".48" stop-color="#1bb9e8"></stop><stop offset=".63" stop-color="#1bbce5"></stop><stop offset=".76" stop-color="#1cc4da"></stop><stop offset=".88" stop-color="#1ed2c8"></stop><stop offset="1" stop-color="#21e5af"></stop><stop offset="1" stop-color="#21e6ae"></stop></linearGradient><linearGradient id="linear-gradient-5" x1="327.83" y1="-976.58" x2="342.29" y2="-995.97" gradientTransform="translate(0 -910.22) scale(1 -1)" gradientUnits="userSpaceOnUse"><stop offset="0" stop-color="#b45ff9"></stop><stop offset=".5" stop-color="#1bb9e8"></stop><stop offset="1" stop-color="#21e6ae"></stop></linearGradient><linearGradient id="linear-gradient-6" x1="303.42" y1="-994.78" x2="317.88" y2="-1014.17" xlink:href="#linear-gradient-5"></linearGradient><linearGradient id="linear-gradient-7" x1="304.41" y1="-1041.95" x2="411.64" y2="-1041.95" xlink:href="#linear-gradient"></linearGradient><linearGradient id="linear-gradient-8" x1="241.38" y1="-960.3" x2="248.17" y2="-1064.85" gradientTransform="translate(0 -910.22) scale(1 -1)" gradientUnits="userSpaceOnUse"><stop offset="0" stop-color="#b45ff9"></stop><stop offset=".48" stop-color="#1bb9e8"></stop><stop offset=".63" stop-color="#1bbce5"></stop><stop offset=".76" stop-color="#1cc4da"></stop><stop offset=".88" stop-color="#1ed2c8"></stop><stop offset="1" stop-color="#21e5af"></stop><stop offset="1" stop-color="#21e6ae"></stop></linearGradient></defs><g class="cls-7"><g><path class="cls-9" d="M388.48,241.46c-2.76-14.82-14.03-26.59-26.05-35.68-12.02-9.09-25.44-16.59-35.67-27.65-23.45-25.35-25.49-63.43-40.42-94.58-15.06-31.41-42.5-57.64-75.36-69.21C159.48-3.79,96.04,33.74,73.7,46.6c-34.33,19.75-101.1,97.33-34.22,168.33,14.85,15.77,33.74,28.4,43.65,47.67,9.95,19.35,10.85,43.37,25.05,59.86,13.89,16.12,36.63,20.64,57.61,24.21,20.19,3.43,40.59,6.88,61.04,5.63,18.98-1.15,49.95-3.21,110.67-37.28,11.85-6.65,22.77-14.92,32.09-24.82,3.47-3.68,6.7-7.58,9.54-11.79,7.28-10.82,11.75-24.15,9.35-36.97Z"></path><path class="cls-9" d="M33.94,255.25c-3.09,6.3-2.41,13.8,1.62,19.54,4.42,6.28,11.32,14.02,17.69,12.43,10.45-2.61,16.26-19.55,9.02-26.75-6.03-5.99-21.39-19.39-28.33-5.22Z"></path><path class="cls-8" d="M227.73,269.87c5.28-9.29,15.03-15.16,25.72-15.47l-39.09-11.52-7.07-85.8,99.07,60.03c7.26,4.4,12.52,11.47,14.64,19.69,2.68,10.4,.05,21.45-7.02,29.54l-31.35,35.79c-4.05,4.63-9.42,7.93-15.38,9.47-9.96,2.57-20.5-1.02-26.82-9.14l-11.39-14.6c-4.04-5.18-4.55-12.29-1.31-18.01Z"></path><path class="cls-8" d="M232.28,113.35c4.75-18.4,3.29-32.66-20.1-38.69-37.81-6.28-39.16,40.93-36.91,50.92,2.97,13.83,13.34,15.72,13.34,15.72l-1.41,13.03-17.3,3.22c25.34,31.82,45.64,9.28,45.64,9.28l3.23-10.94c2.36-8.96,5.48-17.71,8.32-25.96,2.96-.62,6.3-2.59,8.15-7.94,1.97-5.68,0-8.1-2.96-8.64Z"></path><path class="cls-8" d="M42.53,151.98c1.59-12.02,8.15-22.82,18.09-29.78l39.22-25.48c4.58-3.21,10.48-3.82,15.62-1.62l14.04,6.01c5.95,2.55,9.8,8.38,9.8,14.85,0,11.49-10.78,24.88-18.92,33l46.68,2.12c1.47,.07,2.71-1.09,2.74-2.56,.38-4.15,4.52-6.88,8.48-5.58l42.74,13.97c4.13,1.35,6.93,5.21,6.93,9.55,0,2.78,1.15,5.43,3.18,7.33l5.93,5.57,8.82,55.23-21.66,30.75c-6.04,8.57-4.09,24.77-.83,38.35,3.82,15.91,6.55,32.05,8.19,48.32-1.65,.12-3.22,.22-4.71,.31-20.44,1.25-40.85-2.2-61.04-5.63-15.89-2.7-32.8-5.95-46.1-14.39l17.79-55.67c2.42-7.51,2.48-15.59,.17-23.12l-11.41-37.13-42.14-7.28c-26.89-4.89-45.19-30.02-41.59-57.1Z"></path><path class="cls-10" d="M221.71,157.67s-.1,0-.15-.02c-4.86-1.42-34.92-11.45-35.22-11.55-.27-.09-.42-.38-.33-.65,.09-.27,.38-.42,.65-.33,.3,.1,30.34,10.12,35.19,11.53,.28,.08,.43,.37,.35,.65-.06,.23-.27,.38-.49,.38Z"></path><path class="cls-10" d="M147.01,343.51s-.09,0-.13-.02c-.28-.08-.44-.35-.37-.63l18.11-67.89c3.75-14.09,2.69-29.23-2.99-42.66-9.52-22.49-6.04-48.37,9.1-67.54l7.31-9.25c.18-.22,.51-.26,.73-.08,.22,.18,.26,.5,.08,.73l-7.31,9.25c-14.9,18.88-18.33,44.36-8.96,66.5,5.77,13.63,6.85,29.02,3.04,43.32l-18.11,67.89c-.06,.22-.27,.37-.5,.37Z"></path><path class="cls-10" d="M192.99,197.35l13.88,2.05c2.28,.34,3.87,2.47,3.53,4.75l-3.23,21.85c-.19,1.3-.98,2.44-2.14,3.07l-15.42,8.39c-1.64,.89-3.67,.59-4.98-.74l-12.34-12.49c-.92-.94-1.35-2.25-1.16-3.55l3.23-21.85c.34-2.28,2.47-3.87,4.75-3.53l13.87,2.05Z"></path><path class="cls-10" d="M101.19,170.61c-.12,0-.25-.05-.35-.13-.22-.19-.23-.52-.04-.73l22.34-24.66c.19-.22,.52-.23,.73-.04s.23,.52,.04,.73l-22.34,24.66c-.11,.11-.25,.17-.38,.17Z"></path><path class="cls-8" d="M160.68,83.29l22.82-4.32c2.05-.38,3.76-1.78,4.57-3.7,.72-1.72-.61-3.58-2.47-3.48l-30.55,1.88"></path><path class="cls-10" d="M223.25,131.48s6.18-1.6,7.48-9.35c1.29-7.75-3.67-8.77-9.02-7.05-2.62,.85-5.12,6.64-5.12,6.64,0,0-11.51-7.25,1-29.72,0,0-27.72,9.78-51.28-16.12,0,0,14.04,3.72,19.57,.36,11.82-7.17,22.47-17.94,49.65-9.96,27.18,7.98,37.23,42.76-1,65.23,0,0-16.31,9.52-10.33,20.02,0,0-5.8-.91-4.53-6.43l3.58-13.63Z"></path><path class="cls-8" d="M205.74,103.68l-23.08-20.1c-6.25-5.45-14.05-8.82-22.3-9.67-11.14-1.14-22.25,2.42-30.65,9.84l-17.35,15.31,16.42,19.44,24.46-22.34c12.4,5.43,26.68-1.76,26.68-1.76l19.29,12.93c1.73,1.16,3.93,1.38,5.85,.57,1.72-.73,2.08-2.99,.68-4.22Z"></path><path class="cls-6" d="M126,216.33l-2.25-.38,1.66-.86s.21,.45,.58,1.25Z"></path><path class="cls-10" d="M233.21,263.37c-.11,0-.22-.04-.32-.11-.23-.18-.27-.5-.1-.72,.48-.62,12.23-15.12,66.26-10.78,.28,.02,.5,.27,.48,.55-.02,.28-.28,.5-.55,.48-53.46-4.29-65.23,10.23-65.35,10.38-.11,.14-.26,.21-.42,.21Z"></path><path class="cls-10" d="M138.94,113.18s-.06,0-.09,0c-.28-.05-.46-.32-.42-.6,.02-.12,1.02-8.86-26.24-17.95-.27-.09-.42-.38-.33-.65,.09-.27,.38-.42,.65-.33,28.37,9.46,27,18.73,26.93,19.12-.05,.25-.26,.43-.51,.43Z"></path><path class="cls-10" d="M247.74,307.91h-.06c-.28-.03-.48-.29-.45-.58,1.02-8.69-.54-15.05-4.65-18.88-6.01-5.6-15.53-3.88-15.62-3.85-.28,.05-.55-.13-.61-.42-.05-.28,.13-.55,.42-.61,.41-.08,10.13-1.84,16.52,4.12,4.37,4.07,6.04,10.72,4.98,19.75-.03,.27-.25,.46-.52,.46Z"></path><path class="cls-9" d="M193.14,223.49c-.19-.09-.4-.02-.44,.19l-.62,3.09c-.02,.12,.05,.24,.17,.25l.67,.11c.1,.02,.2-.04,.23-.14,.35-1.04,.82-2.37,.86-2.56,.03-.13,.01-.27-.05-.38-.11-.19-.47-.4-.81-.56Z"></path><path class="cls-9" d="M198.25,219.04c.06,.11,.22,.11,.28,0,.54-.9,2.32-4.24,.9-7.24-.03-.08-.14-.05-.15,.03-.06,1-.35,4.33-1.72,5.73-.07,.07-.08,.17-.03,.26l.71,1.22Z"></path><path class="cls-9" d="M196.26,217.41s-1.81-1.75-3.2-3.09c-.85-.83-1.57-1.53-1.65-1.61-.43-.38-.61-.8-.59-1.26,0-.16,.04-.46,.04-.46,.04-.24,.12-.49,.27-.75,0,0,0-.02,.01-.02,.17-.34,.31-.71,.37-1.11,0,0,0-.02,0-.03h0s0-.04,0-.06c.27-2.57-.25-5.24-1.42-7.34-.06-.11-.22-.08-.24,.05l-.56,3.29c-.18-.11-.9-.21-1.13-.22-.25-1.04-.66-1.86-1.17-2.78-.06-.11-.22-.08-.24,.05l-.56,2.87s-.02,.06-.04,.07c-.56,.34-.97,1.62-1.23,1.83-.49,.39-2.6,1.54-3.11,1.93-.4,.3-.54,.69,.79,2.54,.45,.6,1.22,.56,1.22,.56l2.43-.12c.17-.01,.27,.12,.2,.28-.03,.06-.05,.13-.1,.2-.1,.19-.75,1.36-1.25,2.24-.71,1.17-1.24,1.84-1.34,3.36l-.4,7.54s.07,.21,.17,.23l.72,.12c.11,.02,.21-.07,.24-.18,.22-1.09,.68-3.44,.93-4.65,.22-1,.7-1.6,1.7-1.25,.66,.3,1.38,.65,1.2,1.73l-.65,4.69c-.01,.12,.06,.23,.17,.25l1.07,.18c.1,.02,.2-.05,.23-.15,.22-.58,.49-1.2,.76-1.82,.9-1.85,1.48-2.83,4.18-1.48,0,0,2.07,1.17,1.58,3.03-.07,.26-.17,.62-.33,1.26-.03,.12,.04,.25,.16,.27l.92,.15c.09,.02,.19-.05,.23-.13,.28-.64,.59-1.41,.74-1.79,.98-2.51,1.47-5.73-1.14-8.41Z"></path><path class="cls-8" d="M179.1,92.18l21.82,7.92c1.96,.71,4.15,.39,5.82-.85,1.49-1.11,1.3-3.4-.35-4.25l-27.24-13.96"></path><path class="cls-8" d="M178.79,90.14l22.96,3.45c2.06,.31,4.14-.44,5.54-1.98,1.25-1.38,.61-3.58-1.18-4.09l-29.46-8.3"></path><path class="cls-10" d="M186.51,146.13c-.05,0-.1,0-.15-.02l-9.46-2.97c-.28-.08-.42-.38-.34-.65,.08-.28,.38-.43,.65-.34l9.46,2.97c.28,.08,.42,.38,.34,.65-.07,.22-.28,.36-.49,.36Z"></path><path class="cls-10" d="M162.67,98.9c-4.67,0-12.62-1.48-17.53-10.5-.14-.25-.05-.57,.21-.7,.25-.14,.57-.05,.7,.21,6.87,12.63,19.6,9.77,20.14,9.64,.28-.07,.55,.11,.62,.38,.07,.28-.11,.55-.38,.62-.04,0-1.52,.35-3.75,.35Z"></path><path class="cls-10" d="M202.29,86.94s-.1,0-.15-.02l-36.39-10.96c-7.75-2.34-16.12-1.85-23.56,1.35l-7.22,3.12c-.26,.12-.57,0-.68-.27-.12-.26,0-.57,.27-.68l7.22-3.12c7.66-3.3,16.29-3.79,24.28-1.38l36.39,10.96c.28,.08,.43,.37,.35,.65-.08,.22-.28,.36-.51,.36Z"></path><path class="cls-10" d="M206.39,95.51c-.07,0-.14-.02-.21-.05l-28.75-12.58c-.26-.12-.38-.42-.27-.68,.12-.26,.42-.38,.68-.27l28.75,12.58c.26,.12,.38,.42,.27,.68-.08,.2-.28,.32-.48,.32Z"></path><path class="cls-10" d="M134.73,244.5c-.22,0-.43-.15-.49-.37l-9.73-32.22c-4.47-14.79,.41-30.62,12.41-40.34l7.5-6.08c.22-.18,.55-.15,.73,.08,.18,.22,.15,.55-.08,.73l-7.5,6.08c-11.68,9.45-16.42,24.85-12.07,39.24l9.73,32.22c.08,.28-.07,.56-.35,.65-.05,0-.11,.02-.15,.02Z"></path><path class="cls-2" d="M235.76,248.9l-4.27-1.28s-27.25,19.41-29.26,29.38c-1.92,9.52,3.82,69.69,4.35,75.16,6.75,.45,13.51,.55,20.27,.14,1.49-.09,3.06-.18,4.71-.31-1.65-16.27-4.38-32.42-8.19-48.32-3.26-13.58-5.2-29.78,.83-38.35l11.57-16.42Z"></path><path class="cls-3" d="M123.51,198.11c.78-10.04,5.59-19.56,13.72-26.14,0,0-56.58,38.75-91.81,4.92,6.18,16.24,20.45,28.87,38.69,32.19l42.05,7.27c-1.11-3.09-3.63-11.24-2.65-18.25Z"></path><path class="cls-4" d="M321,236.82c-2.12-8.22-7.38-15.29-14.64-19.69l-13.69-8.3c23.71,30.29,17.9,55.72,0,68.74-17.23,12.53-44.27,15.09-46.27,15.26,1.3,2.74,1.88,7.44,.22,15.37,5.78,4.13,13.82,5.18,20.64,3.43,5.96-1.54,11.32-4.84,15.38-9.47l31.35-35.79c7.08-8.08,9.7-19.14,7.02-29.55Z"></path><path class="cls-10" d="M252.18,254.67s-.1,0-.15-.02l-28.52-8.52c-.28-.08-.43-.37-.35-.65,.08-.28,.37-.43,.65-.35l28.52,8.52c.28,.08,.43,.37,.35,.65-.07,.22-.28,.37-.5,.37Z"></path><path class="cls-8" d="M228.63,285.7l-.78,.65c-1.29,1.08-3.27,.31-3.48-1.36l-.35-2.8c-.21-1.65-1.42-3.02-3.04-3.42l-.64-.16s-.19,1.99-.3,4.36c-.2,4.35-3.14,8.09-7.32,9.31l-14.72,4.27,2.58,26.18,18.57-4.48c4.22-1.02,8.11-3.13,11.26-6.12,1.03-.98,2.14-1.86,3.32-2.65l11.49-5.55-7.76-14.62-8.82-3.62Z"></path><path class="cls-10" d="M192.44,303.78c-1.28,0-2.47-.88-2.79-2.17-.36-1.44,.46-2.94,1.87-3.42l24.55-8.24c.27-.09,.56,.05,.65,.32s-.05,.56-.32,.65l-24.55,8.24c-.9,.3-1.42,1.26-1.19,2.18,.24,.96,1.22,1.56,2.18,1.34l19.46-4.45c.28-.06,.55,.11,.62,.39s-.11,.55-.39,.62l-19.46,4.45c-.21,.05-.42,.08-.63,.08Z"></path><path class="cls-10" d="M190.55,311.6c-1.28,0-2.47-.88-2.79-2.17-.36-1.44,.46-2.94,1.87-3.42l24.55-8.24c.27-.08,.56,.05,.65,.32s-.05,.56-.32,.65l-24.55,8.24c-.9,.3-1.42,1.26-1.19,2.18,.24,.96,1.22,1.56,2.18,1.34l19.46-4.45c.28-.06,.55,.11,.62,.39s-.11,.55-.39,.62l-19.46,4.45c-.21,.05-.42,.07-.63,.08Z"></path><path class="cls-10" d="M196.76,316.92c-1.24,0-2.4-.82-2.76-2.08-.42-1.43,.35-2.95,1.75-3.48l19.36-7.02c.27-.1,.57,.04,.66,.31,.1,.27-.04,.57-.31,.66l-19.35,7.02c-.88,.33-1.38,1.31-1.11,2.22,.28,.95,1.28,1.52,2.23,1.26l20.76-5c.28-.06,.55,.11,.62,.38,.07,.28-.11,.55-.38,.62l-20.75,5c-.23,.07-.48,.1-.72,.1Z"></path><path class="cls-10" d="M202.28,322.75c-1.18,0-2.29-.74-2.71-1.9-.52-1.46,.23-3.09,1.68-3.65l18.65-7.12c.27-.1,.57,.03,.67,.3,.1,.27-.03,.57-.3,.67l-18.65,7.12c-.92,.35-1.41,1.4-1.07,2.33,.32,.89,1.28,1.39,2.21,1.15,.28-.08,.56,.08,.64,.36,.08,.28-.08,.56-.36,.64-.25,.07-.51,.1-.75,.1Z"></path><path class="cls-10" d="M224.27,311.6c-.24,0-.45-.17-.51-.42-.98-4.72-5.42-17.92-5.46-18.05-.09-.27,.05-.56,.32-.65,.28-.09,.57,.05,.65,.32,.18,.55,4.5,13.4,5.49,18.17,.06,.28-.12,.55-.4,.62-.02,0-.06,.02-.1,.02Z"></path><path class="cls-10" d="M316.91,54.77l3.71-2.42c2.5-1.63,1.78-5.47-1.14-6.08l-9.49-2,6.92,10.5Z"></path><path class="cls-10" d="M298,67.54l-3.62,2.54c-2.45,1.71-5.74-.39-5.22-3.33l1.68-9.55,7.15,10.35Z"></path><path class="cls-8" d="M321.49,94.48l.92,1.42c-.18,1.5,1.48,2.53,2.75,1.71l4.39-2.86-2.52-3.87-5.54,3.6Z"></path><path class="cls-8" d="M332.57,87.26l.92,1.42c1.45,.45,1.72,2.38,.45,3.2l-4.39,2.86-2.52-3.87,5.55-3.62Z"></path><path class="cls-13" d="M320.11,64.45c10.63,.31,20.44,5.83,26.22,14.76l5.73,8.85-12-5.27-6.02,3.97-13.92-22.32Z"></path><path class="cls-11" d="M305.5,74.04c-3.93,9.88-2.75,21.07,3.15,29.92l5.85,8.78-.08-13.11,6.03-3.95-14.95-21.64Z"></path><path class="cls-8" d="M279.41,18.42c1.09,19.79,8.58,38.69,21.34,53.87l19.69,23.41,6.82-4.48,6.82-4.48-13.68-27.36c-8.86-17.73-23.25-32.11-40.98-40.96Z"></path><path class="cls-10" d="M327.25,91.74c-.17,0-.33-.08-.43-.23l-31.09-47.32c-.16-.24-.09-.56,.15-.72,.24-.16,.56-.09,.72,.15l31.09,47.32c.16,.24,.09,.56-.15,.72-.09,.06-.18,.08-.28,.08Z"></path><path class="cls-9" d="M293.41,44.72c2.76,0,4.99-2.24,4.99-4.99s-2.24-4.99-4.99-4.99-4.99,2.24-4.99,4.99,2.23,4.99,4.99,4.99Z"></path><path class="cls-9" d="M300.66,53.11c1.3,0,2.35-1.05,2.35-2.35s-1.05-2.35-2.35-2.35-2.35,1.05-2.35,2.35,1.05,2.35,2.35,2.35Z"></path><path class="cls-9" d="M306.44,61.91c1.3,0,2.35-1.05,2.35-2.35s-1.05-2.35-2.35-2.35-2.35,1.05-2.35,2.35,1.05,2.35,2.35,2.35Z"></path><path class="cls-10" d="M296.37,40.79s-.06,0-.09,0c-.28-.05-.47-.32-.42-.6,.25-1.35-.65-2.65-2-2.91-.65-.12-1.32,.02-1.87,.4-.55,.38-.92,.95-1.04,1.6-.05,.28-.32,.47-.6,.42-.28-.05-.47-.32-.42-.6,.17-.93,.69-1.73,1.47-2.27s1.72-.74,2.65-.56c1.92,.35,3.18,2.2,2.83,4.12-.05,.25-.27,.42-.52,.42Z"></path><path class="cls-10" d="M281.85,35.47c-.17,0-.33-.08-.43-.23-.16-.24-.09-.56,.15-.72l11.76-7.73c.24-.16,.56-.09,.72,.15,.16,.24,.09,.56-.15,.72l-11.76,7.73c-.09,.06-.18,.08-.28,.08Z"></path><path class="cls-10" d="M313.13,87.53c-.17,0-.33-.08-.43-.23-.16-.24-.09-.56,.15-.72l15.86-10.42c.24-.16,.56-.09,.72,.15,.16,.24,.09,.56-.15,.72l-15.86,10.42c-.08,.06-.18,.08-.28,.08Z"></path><path class="cls-10" d="M229.24,170.59c-.05,0-.11,0-.15-.02l-61-19.44c-.08-.02-.15-.07-.22-.13-11.33-11.6-17.57-26.92-17.57-43.15,0-34.05,27.71-61.76,61.76-61.76s61.76,27.71,61.76,61.76c0,28.24-19.11,55.2-44.45,62.72-.04,.02-.08,.02-.14,.02Zm-60.72-20.42l60.73,19.35c24.84-7.45,43.56-33.94,43.56-61.68,0-33.49-27.25-60.73-60.73-60.73s-60.73,27.25-60.73,60.73c0,15.9,6.11,30.93,17.19,42.32Z"></path><path class="cls-10" d="M183.63,113.38s-.05,0-.07,0c-1.25-.15-2.18-1.17-2.28-2.46-.08-1.07,.52-2.5,2.44-3.02,2.92-.79,3.78-7.65,3.86-10.22,0-.31,.28-.56,.57-.53,.31,0,.55,.26,.53,.57-.02,.41-.37,10.08-4.68,11.25-1.08,.29-1.69,.99-1.63,1.88,.05,.62,.48,1.34,1.32,1.44,.3,.04,.52,.32,.48,.62-.03,.28-.26,.49-.54,.49Z"></path><path class="cls-10" d="M186.87,124.01c-1.98,0-4.48-.67-6.9-3.16-.22-.22-.21-.57,0-.78,.22-.22,.57-.21,.78,0,4.62,4.75,9.34,2.15,9.53,2.04,.26-.15,.6-.06,.75,.21,.15,.26,.06,.6-.2,.75-.02,.02-1.65,.93-3.97,.93Z"></path><path class="cls-9" d="M378.51,122.58c-8.55-10.43-23.47-25.3-36.32-20.05,6.98,7.2,18.68,16.09,36.32,20.05Z"></path><path class="cls-9" d="M332.5,111.53c-6.35,10.18-6.79,23-1.29,33.73,1.96,3.83,4.32,7.98,7,11.82,0-.02,5.95-18.77-5.71-45.56Z"></path><path class="cls-9" d="M359.27,171.51c19.04-2.02,33.44-30.39,22.47-44.85-.93-1.22-2.02-2.62-3.22-4.08-17.64-3.96-29.35-12.85-36.32-20.05-3.18,1.3-6.23,3.82-9.02,7.95-.23,.35-.44,.7-.66,1.05,11.65,26.78,5.72,45.53,5.71,45.56,5.81,8.34,13.11,15.25,21.05,14.42Z"></path><path class="cls-12" d="M381.74,126.67c-.93-1.22-2.02-2.62-3.22-4.08-17.64-3.96-29.35-12.85-36.32-20.05-5.7-5.88-8.25-10.65-8.25-10.65l-8.78,5.72c3.01,4.84,5.41,9.49,7.35,13.93,11.65,26.78,5.72,45.53,5.71,45.56,5.81,8.35,13.12,15.25,21.05,14.42,19.05-2.02,33.44-30.39,22.47-44.85Z"></path><path class="cls-10" d="M194.42,142.39c-5.94,0-12.1-2.07-16.56-8.73-.16-.24-.09-.56,.14-.72,.24-.16,.56-.09,.72,.14,11.15,16.66,33.78,3.01,34,2.86,.25-.15,.56-.07,.72,.17,.15,.25,.08,.56-.17,.72-.14,.09-9.19,5.56-18.84,5.56Z"></path><path class="cls-5" d="M246.25,148.34c-.72,.71-1.88-.11-1.47-1.02,4.45-9.9,6.85-20.65,6.85-31.3,0-22.22-10.32-42.79-27.6-56.19-.78-.6-.17-1.85,.78-1.6,22.11,5.68,38.49,25.78,38.49,49.63,0,15.17-6.68,30.12-17.06,40.49Z"></path></g></g></svg> 