<?xml version="1.0" encoding="UTF-8"?> <svg xmlns="http://www.w3.org/2000/svg" xmlns:xlink="http://www.w3.org/1999/xlink" viewBox="0 0 841.99 348.5"><defs><style>.cls-1,.cls-15,.cls-16,.cls-7,.cls-8,.cls-9{fill:none;}.cls-2{fill:#fff;}.cls-3{fill:#b45ef9;}.cls-4{fill:url(#linear-gradient);}.cls-5{fill:url(#linear-gradient-2);}.cls-13,.cls-18,.cls-6{fill:#02024e;}.cls-7{stroke:#02024e;stroke-width:6.25px;}.cls-15,.cls-7,.cls-9{stroke-linejoin:round;}.cls-8{stroke:#1ab8e8;stroke-miterlimit:10;stroke-width:2.24px;}.cls-15,.cls-8,.cls-9{stroke-linecap:round;}.cls-9{stroke:#b45ef9;stroke-width:3.37px;}.cls-10{fill:#1ab8e8;}.cls-11{fill:#199fd5;}.cls-12{clip-path:url(#clip-path);}.cls-13,.cls-14,.cls-17,.cls-19{fill-rule:evenodd;}.cls-14{fill-opacity:0.5;fill:url(#linear-gradient-3);}.cls-15,.cls-16,.cls-18{stroke:#1eb8e8;}.cls-15,.cls-16{stroke-width:2.27px;}.cls-16,.cls-18{stroke-miterlimit:2.81;}.cls-17{fill:#514fbf;}.cls-18{stroke-width:1.7px;}.cls-19{fill:#1eb8e8;}</style><linearGradient id="linear-gradient" x1="362.95" y1="-1840.97" x2="461.37" y2="-1386.21" gradientTransform="translate(523.18 1828.41) rotate(-25.9)" gradientUnits="userSpaceOnUse"><stop offset="0" stop-color="#b9eaf8"></stop><stop offset="0.52" stop-color="#1bb9e8"></stop><stop offset="1" stop-color="#21e6ae"></stop></linearGradient><linearGradient id="linear-gradient-2" x1="286.96" y1="-1642.2" x2="532.17" y2="-1642.2" gradientTransform="translate(922.1 1690.37) rotate(-40.31)" gradientUnits="userSpaceOnUse"><stop offset="0" stop-color="#f2e3fd"></stop><stop offset="1" stop-color="#d9f7ff"></stop></linearGradient><clipPath id="clip-path"><path class="cls-1" d="M614.49,5.06c22.44,1.74,94.61,7.32,150.23,47.15,63.6,45.53,86.39,122.1,42.19,181.35-24.06,32.27-61.15,50.23-81.24,58.5-84.07,39.72-152,47-198.61,46.28-98.63-1.5-125.19-39.18-213.27-26.19C253.71,321,226.86,344.3,175.55,344.4h-.63c-5.34,0-10.93-.27-16.86-.82-1.21-.11-2.42-.24-3.62-.37-48.45-5.39-90-29.61-111.32-63.7-15.21-24.31-30.91-59.1-30.95-99.37v-.38A154.84,154.84,0,0,1,21.52,127a178.36,178.36,0,0,1,23.53-44C72.6,45.06,127,23.45,182.92,28.28l.71.07.39,0C303.05,39.05,406.68,33,406.68,33,524.2,26.13,532.74,4.1,591.62,4.1c6.86,0,14.4.3,22.87,1"></path></clipPath><linearGradient id="linear-gradient-3" x1="-3102.74" y1="-1031.15" x2="-3102.74" y2="-1031.81" gradientTransform="matrix(725.15, 0, 0, -388.52, 2250565.04, -400462.02)" gradientUnits="userSpaceOnUse"><stop offset="0" stop-color="#b45ff9"></stop><stop offset="0.51" stop-color="#1bb9e8"></stop><stop offset="1" stop-color="#21e6ae"></stop></linearGradient></defs><g id="Layer_4" data-name="Layer 4"><g id="Artwork_73" data-name="Artwork 73"><path class="cls-2" d="M614.49,5.06c22.44,1.74,94.61,7.32,150.23,47.15,63.6,45.53,86.39,122.1,42.19,181.35-24.06,32.27-61.15,50.23-81.24,58.5-84.07,39.72-152,47-198.61,46.28-98.63-1.5-125.19-39.18-213.27-26.19C253.71,321,226.86,344.3,175.55,344.4h-.63c-5.34,0-10.93-.27-16.86-.82-1.21-.11-2.42-.24-3.62-.37-48.45-5.39-90-29.61-111.32-63.7-15.21-24.31-30.91-59.1-30.95-99.37v-.38A154.84,154.84,0,0,1,21.52,127a178.36,178.36,0,0,1,23.53-44C72.6,45.06,127,23.45,182.92,28.28l.71.07.39,0C303.05,39.05,406.68,33,406.68,33,524.2,26.13,532.74,4.1,591.62,4.1c6.86,0,14.4.3,22.87,1"></path></g><polygon class="cls-3" points="49.19 59.76 53.99 43.12 44.39 43.12 49.19 59.76"></polygon><polygon class="cls-3" points="49.19 26.52 44.39 43.16 53.99 43.16 49.19 26.52"></polygon><polygon class="cls-3" points="32.57 43.14 49.21 47.95 49.21 38.34 32.57 43.14"></polygon><polygon class="cls-3" points="65.81 43.14 49.17 38.34 49.17 47.95 65.81 43.14"></polygon><polygon class="cls-3" points="289.26 127.55 294.07 110.9 284.46 110.9 289.26 127.55"></polygon><polygon class="cls-3" points="289.26 94.3 284.46 110.95 294.07 110.95 289.26 94.3"></polygon><polygon class="cls-3" points="272.64 110.92 289.29 115.73 289.29 106.12 272.64 110.92"></polygon><polygon class="cls-3" points="305.88 110.92 289.24 106.12 289.24 115.73 305.88 110.92"></polygon><polygon class="cls-3" points="60.52 247.66 65.32 231.01 55.71 231.01 60.52 247.66"></polygon><polygon class="cls-3" points="60.52 214.41 55.71 231.06 65.32 231.06 60.52 214.41"></polygon><polygon class="cls-3" points="43.9 231.03 60.54 235.84 60.54 226.23 43.9 231.03"></polygon><polygon class="cls-3" points="77.14 231.03 60.49 226.23 60.49 235.84 77.14 231.03"></polygon><polygon class="cls-3" points="251.97 31.48 254.37 23.17 249.57 23.17 251.97 31.48"></polygon><polygon class="cls-3" points="251.97 14.88 249.57 23.19 254.37 23.19 251.97 14.88"></polygon><polygon class="cls-3" points="243.67 23.18 251.98 25.58 251.98 20.78 243.67 23.18"></polygon><polygon class="cls-3" points="260.27 23.18 251.96 20.78 251.96 25.58 260.27 23.18"></polygon><polygon class="cls-3" points="44.39 153.67 46.78 145.36 41.99 145.36 44.39 153.67"></polygon><polygon class="cls-3" points="44.39 137.07 41.99 145.39 46.78 145.39 44.39 137.07"></polygon><polygon class="cls-3" points="36.09 145.37 44.4 147.77 44.4 142.97 36.09 145.37"></polygon><polygon class="cls-3" points="52.69 145.37 44.37 142.97 44.37 147.77 52.69 145.37"></polygon><rect class="cls-4" x="76.55" y="49.73" width="199.74" height="262.15" rx="9.58" transform="translate(-39.43 49.57) rotate(-14.4)"></rect><polygon class="cls-5" points="225.38 46.32 68.72 86.55 125.5 307.64 259.55 273.22 276.35 244.81 225.38 46.32"></polygon><polygon class="cls-3" points="259.55 273.22 276.35 244.81 253.75 250.61 259.55 273.22"></polygon><path class="cls-6" d="M218,57,80.31,92.4l.25-22.1a13,13,0,0,1,9.75-12.41L192.65,31.6a13,13,0,0,1,14.52,6.18Z"></path><circle class="cls-7" cx="140.07" cy="34.88" r="10.58"></circle><circle class="cls-2" cx="117.66" cy="165.96" r="10.23"></circle><line class="cls-8" x1="136.02" y1="157.02" x2="224.55" y2="132.57"></line><line class="cls-8" x1="138.06" y1="164.95" x2="226.58" y2="140.49"></line><polyline class="cls-9" points="112.28 165.63 118.41 168.89 126.14 151.89"></polyline><circle class="cls-2" cx="123.19" cy="188.32" r="10.23"></circle><line class="cls-8" x1="141.55" y1="179.39" x2="230.08" y2="154.93"></line><line class="cls-8" x1="143.59" y1="187.31" x2="232.11" y2="162.85"></line><polyline class="cls-9" points="117.81 188 123.94 191.25 131.67 174.25"></polyline><circle class="cls-2" cx="129.44" cy="210.69" r="10.23"></circle><line class="cls-8" x1="147.8" y1="201.75" x2="236.33" y2="177.29"></line><line class="cls-8" x1="149.84" y1="209.67" x2="238.36" y2="185.22"></line><polyline class="cls-9" points="124.07 210.36 130.19 213.61 137.93 196.61"></polyline><circle class="cls-2" cx="134.97" cy="233.05" r="10.23"></circle><line class="cls-8" x1="153.33" y1="224.11" x2="241.86" y2="199.65"></line><line class="cls-8" x1="155.37" y1="232.04" x2="243.89" y2="207.58"></line><polyline class="cls-9" points="129.6 232.72 135.72 235.97 143.46 218.98"></polyline><circle class="cls-2" cx="141.23" cy="255.41" r="10.23"></circle><line class="cls-8" x1="159.59" y1="246.47" x2="248.11" y2="222.02"></line><line class="cls-8" x1="161.62" y1="254.4" x2="250.15" y2="229.94"></line><polyline class="cls-9" points="135.85 255.08 141.98 258.34 149.71 241.34"></polyline><circle class="cls-2" cx="145.77" cy="277.77" r="10.23"></circle><line class="cls-8" x1="164.13" y1="268.84" x2="252.66" y2="244.38"></line><line class="cls-8" x1="166.17" y1="276.76" x2="245.68" y2="254.79"></line><polyline class="cls-9" points="140.4 277.44 146.52 280.7 154.25 263.7"></polyline><path class="cls-6" d="M166.42,77.9a43.2,43.2,0,0,1-13.51-2.43,43.3,43.3,0,0,1-21.52,14.58l5.85,20.27a36.06,36.06,0,0,0,33.25,26A36.06,36.06,0,0,0,184.75,96.6L178.9,76.34a43.47,43.47,0,0,1-12.48,1.56"></path><path class="cls-6" d="M169.39,132.57a32.33,32.33,0,0,1-28.57-23.29L136,92.41a47.22,47.22,0,0,0,18.2-12.64,46.62,46.62,0,0,0,12.18,1.86,47.55,47.55,0,0,0,10-.86l4.87,16.87a32.31,32.31,0,0,1-11.77,34.93"></path><path class="cls-10" d="M175.64,101.9a14.5,14.5,0,1,1-18-9.91,14.5,14.5,0,0,1,18,9.91"></path><path class="cls-11" d="M172.66,102.76A11.41,11.41,0,1,1,158.54,95a11.4,11.4,0,0,1,14.12,7.79h0"></path><path class="cls-2" d="M161.33,111.43a1.11,1.11,0,0,1-.92-.12l-4.53-2.49,1.16-2.1,3.45,1.9,4.36-8.64,2.16,1.09-4.95,9.74a1.21,1.21,0,0,1-.73.62Z"></path><g class="cls-12"><g id="Master_Character_Male_Torso" data-name="Master/Character/Male/Torso"><g id="Master_Character_Male_Torso-2" data-name="Master/Character/Male/Torso"><g id="Male_Body" data-name="Male/Body"><g id="Male_Body_5" data-name="Male/Body/5"><g id="Group-2"><g id="Group-3"><path id="Combined-Shape" class="cls-13" d="M578.75,157.31l76.58,1.06c24,0,44.35,2.73,61.37,7.46q39.57,11,71.68,55.45,51.18,53.64,52.44,103.61c2.37,94.6-128.74,37.3-128.74,37.3h0l-10.86,69.64s-71.19,45.51-180.07,0q-16.56-112-18.59-131.13s-14.08,32-58,40.09c-24.08,4.46-46.43-5.59-93.37-87.45l-.15.16-5.59-8.67-27.42-3.51a17.94,17.94,0,0,1-12.92-8.22h0l-16.87-26.72a4.4,4.4,0,0,1,1.16-5.92,5.38,5.38,0,0,1,6.56.25h0l24.1,20.13,12.54-3.61L318.58,206c-.13-.1-.26-.22-.38-.33a4.43,4.43,0,0,1,0-6.25,6.51,6.51,0,0,1,7.8-1l29,16.57q10.15,0,19.49,13.33h0l-.13.14c3.59,3.47,11.38,10.8,17.14,14.74,7.72,5.28,34.94,14.22,40.63,18.69,0,0,4.74-30.36,39.93-61.53,6.35-5.67,30.74-33.9,106.68-43Zm152.91,124c-5.42,28.17-12.15,36.61-12.15,36.61,19.08-1.56,33.65-3.14,33.65-3.14C734.26,300.18,731.66,281.27,731.66,281.27Z"></path><path id="Combined-Shape-2" data-name="Combined-Shape" class="cls-14" d="M671.12,347.28a120.68,120.68,0,0,0,40.76,16.05l-8.29,51-3.25.52C680.73,403.45,671.12,347.28,671.12,347.28Zm18.12-187a193.94,193.94,0,0,1,27.46,5.44q39.57,11,71.68,55.44,51.18,53.64,52.44,103.61c2.08,82.95-98.48,49.11-123.28,39.52h0c48.19,7.35,90.35-13.55,90.35-13.55,26.77-16.07-30.79-115.15-30.79-115.15-10-21.58-54.39-53.46-86.72-74.57Zm-203.4,94.15s11.25,25.66,16.14,47.33c-3,5.85-18.54,31.72-57.38,38.92-21.44,4-41.51-3.57-78.78-63h0c7.22,6.22,52.43,44.25,77.33,43.33C443.14,321,452.71,271.53,485.84,254.46Z"></path><g id="Group"><path id="Shape" class="cls-15" d="M707.19,360.77l-36.15-15m19.77-26.33,61.61-4.14s38.5-.53,50.68,10.85"></path><path id="Stroke-29" class="cls-15" d="M499.7,284.7s-22.93-36.6-12.64-69.64"></path><path id="Stroke-31" class="cls-15" d="M449.32,277.39s-10.15-11.17-17.87-15"></path><path id="Stroke-35" class="cls-15" d="M697.88,274.22c-29.79,2.71-57.41-6.5-57.41-6.5l-1-20.32s41,8.13,57.68,4.47Z"></path><path id="Stroke-41" class="cls-15" d="M540.14,174.74s48.75,56.06,114.56.81"></path><path id="Stroke-43" class="cls-15" d="M738.92,193.66s-40,30.83-8,88.14"></path></g></g></g><path id="Path-136" class="cls-16" d="M671.71,345.73q-39.21-4-39.13-27.85c.08,0-26.15-9-26.15-11.08s-14.63-11.19,84.32,12.46"></path></g></g><g id="Dark_Male" data-name="Dark/Male"><g id="Dark_Male_Face" data-name="Dark/Male/Face"><path id="face" class="cls-13" d="M575.72,41.08q-27.66,0-31.78,23.57-2.38,57-1.31,67a16.57,16.57,0,0,0,10.88,14.16c1.4.51,6.71.82,15.9.92v22.85q25.13,34.29,59.81,0l-10.87-54.26c7.2-3.42,9.5-14.87,1.91-18.88a10.88,10.88,0,0,0-6-1.55l-6.06-30.2Q603.37,41.08,575.72,41.08Z"></path><path id="collar" class="cls-15" d="M629.22,169.54q-32.69,33.72-59.81,0"></path><path id="Shadow" class="cls-17" d="M611.14,117.18l16.28,44.16L618.51,116Z"></path></g></g><path id="Shadow-2" data-name="Shadow" class="cls-1" d="M611.14,117.18l16.28,44.16L618.51,116Z"></path><g id="Dark_Male_Mouth" data-name="Dark/Male/Mouth"><g id="Dark_Male_Mouth_8" data-name="Dark/Male/Mouth/8"><path id="Mouth" class="cls-15" d="M560.29,119h15q1.27,5.64-10.43,5.63"></path></g></g><g id="Dark_Male_Nose" data-name="Dark/Male/Nose"><g id="Dark_Male_Nose_5" data-name="Dark/Male/Nose/5"><path id="Path-53" class="cls-15" d="M554.25,92.67c-3.85,11.54-10.88,19.75,3,19.75,8.94,0,4.67-7.75,1.29-4.35"></path></g></g><g id="Dark_Male_Glasses" data-name="Dark/Male/Glasses"><g id="Dark_Male_Glasses_4" data-name="Dark/Male/Glasses/4"><g id="Group-2-2" data-name="Group-2"><g id="Group-2-3" data-name="Group"><ellipse id="Oval" class="cls-18" cx="544.24" cy="97.53" rx="11.75" ry="11.75"></ellipse><line id="Line-2" class="cls-15" x1="551.38" y1="106.05" x2="535.95" y2="90.15"></line><line id="Line-2-Copy" class="cls-15" x1="548.73" y1="107.78" x2="534.34" y2="93.15"></line></g><g id="Group-3-2" data-name="Group"><ellipse id="Oval-2" data-name="Oval" class="cls-18" cx="571.88" cy="97.53" rx="11.75" ry="11.75"></ellipse><line id="Line-2-2" data-name="Line-2" class="cls-15" x1="579.02" y1="106.05" x2="563.58" y2="90.15"></line><line id="Line-2-Copy-2" data-name="Line-2-Copy" class="cls-15" x1="576.37" y1="107.78" x2="561.97" y2="93.15"></line></g><line id="Line" class="cls-15" x1="559.9" y1="96.6" x2="555.75" y2="96.6"></line></g></g></g></g></g><g id="Dark_Male_Hair" data-name="Dark/Male/Hair"><g id="Dark_Male_Hair_11" data-name="Dark/Male/Hair/11"><path id="Path-50" class="cls-19" d="M543.26,81.83c-7.31-1.93-7.94-6.53-6.34-11.67,0,0-39.94-44.15,27.23-44.15S634,69.16,632.67,96.84q-1.35,27.69-17.22,36.46L609.76,117q14.15-1.17,14.14-11.29c0-10.12-12.3-14.68-17.56-5.81,0,0-14.39-12.49-14.39-32.78,0,0-11.75,5.74-47.71.29C544.24,67.45,543.64,72.2,543.26,81.83Z"></path></g></g></g></g></svg> 